<svg width="575" height="369" viewBox="0 0 575 369" fill="none" xmlns="http://www.w3.org/2000/svg">
<path d="M311.048 2.92676H463.951V38.7124H408.646V118.417C408.646 133.056 413.525 137.936 428.165 137.936C437.925 137.936 442.805 136.31 442.805 136.31V170.469C442.805 170.469 434.672 173.722 415.152 173.722C384.246 173.722 363.1 165.589 363.1 126.55V38.7124H311.048V2.92676Z" fill="#121212"/>
<path d="M229.99 194.829V363.997H184.444V194.829H229.99Z" fill="#121212"/>
<path d="M229.99 194.829V363.997H184.444V194.829H229.99Z" fill="url(#paint0_linear_107_1171)"/>
<path d="M246.396 363.997V194.829H327.727C371.645 194.829 394.418 209.469 394.418 240.374C394.418 268.027 368.392 274.533 368.392 274.533V276.16C368.392 276.16 399.298 282.667 399.298 315.199C399.298 347.731 378.152 363.997 332.607 363.997H246.396ZM327.727 292.426H291.941V331.465H330.98C345.62 331.465 353.753 324.959 353.753 311.946C353.753 298.933 343.993 292.426 327.727 292.426ZM291.941 263.147H324.473C340.74 263.147 348.873 256.641 348.873 245.254C348.873 233.868 342.366 227.361 327.727 227.361H291.941V263.147Z" fill="#121212"/>
<path d="M246.396 363.997V194.829H327.727C371.645 194.829 394.418 209.469 394.418 240.374C394.418 268.027 368.392 274.533 368.392 274.533V276.16C368.392 276.16 399.298 282.667 399.298 315.199C399.298 347.731 378.152 363.997 332.607 363.997H246.396ZM327.727 292.426H291.941V331.465H330.98C345.62 331.465 353.753 324.959 353.753 311.946C353.753 298.933 343.993 292.426 327.727 292.426ZM291.941 263.147H324.473C340.74 263.147 348.873 256.641 348.873 245.254C348.873 233.868 342.366 227.361 327.727 227.361H291.941V263.147Z" fill="url(#paint1_linear_107_1171)"/>
<path d="M409.02 279.413C409.02 229.964 437.973 189.949 493.604 189.949C549.234 189.949 574.935 229.964 574.935 279.413C574.935 283.317 574.609 289.173 574.609 289.173H454.89C456.842 315.199 467.903 334.718 495.23 334.718C522.883 334.718 527.763 308.692 527.763 308.692H573.308C573.308 308.692 563.548 368.877 493.604 368.877C436.672 368.877 409.02 328.862 409.02 279.413ZM493.604 224.108C471.156 224.108 460.095 239.073 456.191 259.894H528.088C525.16 239.073 516.051 224.108 493.604 224.108Z" fill="#121212"/>
<path d="M409.02 279.413C409.02 229.964 437.973 189.949 493.604 189.949C549.234 189.949 574.935 229.964 574.935 279.413C574.935 283.317 574.609 289.173 574.609 289.173H454.89C456.842 315.199 467.903 334.718 495.23 334.718C522.883 334.718 527.763 308.692 527.763 308.692H573.308C573.308 308.692 563.548 368.877 493.604 368.877C436.672 368.877 409.02 328.862 409.02 279.413ZM493.604 224.108C471.156 224.108 460.095 239.073 456.191 259.894H528.088C525.16 239.073 516.051 224.108 493.604 224.108Z" fill="url(#paint2_linear_107_1171)"/>
<path d="M173.138 194.829L115.555 363.998H57.6477L0.0653381 194.829H48.8639L87.9028 323.332L126.942 194.829H173.138Z" fill="#121212"/>
<path d="M173.138 194.829L115.555 363.998H57.6477L0.0653381 194.829H48.8639L87.9028 323.332L126.942 194.829H173.138Z" fill="url(#paint3_linear_107_1171)"/>
<path d="M173.27 172.909L115.688 3.74078H57.7802L0.197922 172.909H48.9965L88.0354 44.4062L127.074 172.909H173.27Z" fill="#121212"/>
<path d="M283.302 0.144531C284.17 0.144531 287.857 0.361417 294.363 0.79519V37.1345H281.35C251.637 37.1345 236.781 62.173 236.781 92.5365V172.933H187.77V2.74713H235.479V33.9782C243.287 11.4224 259.228 0.144531 283.302 0.144531Z" fill="#121212"/>
<defs>
<linearGradient id="paint0_linear_107_1171" x1="74.8893" y1="389.246" x2="553.393" y2="164.45" gradientUnits="userSpaceOnUse">
<stop stop-color="#FF00CC"/>
<stop offset="1" stop-color="#333399"/>
</linearGradient>
<linearGradient id="paint1_linear_107_1171" x1="74.8893" y1="389.246" x2="553.393" y2="164.45" gradientUnits="userSpaceOnUse">
<stop stop-color="#FF00CC"/>
<stop offset="1" stop-color="#333399"/>
</linearGradient>
<linearGradient id="paint2_linear_107_1171" x1="74.8893" y1="389.246" x2="553.393" y2="164.45" gradientUnits="userSpaceOnUse">
<stop stop-color="#FF00CC"/>
<stop offset="1" stop-color="#333399"/>
</linearGradient>
<linearGradient id="paint3_linear_107_1171" x1="74.8893" y1="389.246" x2="553.393" y2="164.45" gradientUnits="userSpaceOnUse">
<stop stop-color="#FF00CC"/>
<stop offset="1" stop-color="#333399"/>
</linearGradient>
</defs>
</svg>
